<?xml version="1.0" standalone="no"?>
<!DOCTYPE svg PUBLIC "-//W3C//DTD SVG 20010904//EN"
 "http://www.w3.org/TR/2001/REC-SVG-20010904/DTD/svg10.dtd">
<svg version="1.0" xmlns="http://www.w3.org/2000/svg"
 width="275.000000pt" height="183.000000pt" viewBox="0 0 275.000000 183.000000"
 preserveAspectRatio="xMidYMid meet">

<g transform="translate(0.000000,183.000000) scale(0.100000,-0.100000)"
fill="#000000" stroke="none">
<path d="M0 1684 c0 -127 2 -145 15 -140 9 3 44 11 78 17 52 10 66 17 87 45
14 18 40 40 59 49 30 14 33 19 28 49 -3 19 -2 38 3 42 4 5 11 19 14 31 11 34
-32 52 -98 42 -30 -5 -65 -5 -86 1 -19 6 -50 10 -67 10 l-33 0 0 -146z"/>
<path d="M675 1814 c-11 -8 -40 -32 -65 -54 -25 -22 -53 -46 -64 -53 -18 -13
-18 -15 0 -70 17 -50 23 -58 64 -75 25 -11 72 -28 105 -37 64 -18 116 -42 126
-57 8 -12 71 -29 130 -35 48 -5 131 17 159 41 8 8 42 23 75 36 68 25 243 39
285 22 14 -5 30 -11 35 -12 6 -2 15 -10 22 -19 10 -13 12 0 13 67 0 53 -4 81
-10 77 -5 -3 -10 1 -10 9 0 9 5 16 10 16 6 0 10 10 10 23 0 13 14 37 33 54
l32 31 196 7 196 7 24 -26 c13 -14 30 -32 37 -40 8 -11 12 -66 13 -193 0 -173
8 -237 22 -200 3 9 13 17 21 17 8 0 17 6 19 13 4 10 6 10 6 0 1 -7 10 -13 21
-13 11 0 20 -3 20 -7 0 -5 14 -16 30 -25 20 -12 30 -25 30 -41 0 -14 7 -42 16
-63 11 -25 14 -51 9 -78 -15 -98 -6 -156 45 -281 62 -153 80 -220 82 -307 1
-83 3 -90 24 -98 12 -5 28 -17 35 -27 10 -14 25 -18 54 -16 35 2 216 20 223
22 1 1 2 316 2 701 l0 700 -1027 0 c-896 -1 -1031 -3 -1048 -16z m875 -104 c0
-16 -2 -30 -4 -30 -2 0 -6 14 -8 30 -3 17 -1 30 4 30 4 0 8 -13 8 -30z m1128
-17 c0 -10 5 -43 10 -73 18 -93 21 -383 6 -568 -12 -159 -15 -175 -36 -192
-31 -26 -33 -25 -46 18 -29 95 -36 191 -24 305 7 62 17 174 22 249 11 147 26
238 41 238 5 0 9 9 9 20 0 11 4 20 9 20 6 0 10 -8 9 -17z m-35 -980 c2 -27 4
-93 3 -148 l-1 -100 -26 -3 c-24 -3 -27 1 -33 37 -4 26 -1 56 9 83 8 24 15 66
15 95 0 90 25 117 33 36z"/>
<path d="M1898 1723 c12 -2 30 -2 40 0 9 3 -1 5 -23 4 -22 0 -30 -2 -17 -4z"/>
<path d="M2051 1644 c0 -11 3 -14 6 -6 3 7 2 16 -1 19 -3 4 -6 -2 -5 -13z"/>
<path d="M2054 1485 c0 -49 1 -71 3 -48 2 23 2 64 0 90 -2 26 -3 8 -3 -42z"/>
<path d="M1677 1523 c-4 -3 -7 -11 -7 -17 0 -6 5 -4 10 4 7 12 11 8 16 -17 9
-44 27 -58 45 -36 13 16 12 17 -3 4 -15 -11 -19 -11 -24 3 -10 25 4 49 24 41
13 -5 14 -4 5 6 -10 10 -15 9 -28 -1 -12 -10 -15 -10 -15 4 0 16 -12 21 -23 9z"/>
<path d="M1947 1513 c-4 -3 -6 -20 -6 -37 1 -17 3 -23 6 -14 2 9 12 19 21 21
15 4 15 5 0 6 -10 0 -18 5 -18 10 0 5 8 12 18 14 14 4 14 5 1 6 -9 0 -19 -2
-22 -6z"/>
<path d="M1687 1363 c-9 -9 -9 -43 1 -43 4 0 7 11 7 25 0 14 0 25 -1 25 0 0
-4 -3 -7 -7z"/>
<path d="M1994 1346 c-3 -8 -4 -21 -1 -28 3 -7 6 -2 6 12 1 20 3 22 11 10 6
-9 10 -10 10 -3 0 19 -20 26 -26 9z"/>
<path d="M1830 1327 c0 -8 6 -20 14 -26 12 -10 13 -8 9 9 -7 25 -23 37 -23 17z"/>
<path d="M1965 1329 c-4 -6 -5 -12 -2 -15 2 -3 7 2 10 11 7 17 1 20 -8 4z"/>
<path d="M1668 1303 c7 -3 16 -2 19 1 4 3 -2 6 -13 5 -11 0 -14 -3 -6 -6z"/>
<path d="M2051 1224 c0 -11 3 -14 6 -6 3 7 2 16 -1 19 -3 4 -6 -2 -5 -13z"/>
<path d="M1768 1103 c7 -3 16 -2 19 1 4 3 -2 6 -13 5 -11 0 -14 -3 -6 -6z"/>
<path d="M1658 1073 c3 -15 1 -24 -5 -20 -5 3 -10 0 -10 -8 0 -11 4 -12 14 -4
15 13 18 45 4 53 -4 3 -6 -6 -3 -21z"/>
<path d="M1898 1063 c7 -3 16 -2 19 1 4 3 -2 6 -13 5 -11 0 -14 -3 -6 -6z"/>
<path d="M1940 1035 c0 -8 5 -15 10 -15 6 0 10 7 10 15 0 8 -4 15 -10 15 -5 0
-10 -7 -10 -15z"/>
<path d="M1986 1013 c-6 -14 -5 -15 5 -6 7 7 10 15 7 18 -3 3 -9 -2 -12 -12z"/>
<path d="M1878 1003 c7 -3 16 -2 19 1 4 3 -2 6 -13 5 -11 0 -14 -3 -6 -6z"/>
<path d="M1748 993 c6 -2 18 -2 25 0 6 3 1 5 -13 5 -14 0 -19 -2 -12 -5z"/>
<path d="M1878 973 c7 -3 16 -2 19 1 4 3 -2 6 -13 5 -11 0 -14 -3 -6 -6z"/>
<path d="M1646 952 c-3 -5 1 -9 9 -9 8 0 12 4 9 9 -3 4 -7 8 -9 8 -2 0 -6 -4
-9 -8z"/>
<path d="M1645 920 c-3 -5 -1 -10 4 -10 6 0 11 5 11 10 0 6 -2 10 -4 10 -3 0
-8 -4 -11 -10z"/>
<path d="M1986 885 c4 -8 8 -15 10 -15 2 0 4 7 4 15 0 8 -4 15 -10 15 -5 0 -7
-7 -4 -15z"/>
<path d="M1970 871 c0 -10 19 -25 25 -20 1 2 -3 10 -11 17 -8 7 -14 8 -14 3z"/>
<path d="M1748 853 c6 -2 18 -2 25 0 6 3 1 5 -13 5 -14 0 -19 -2 -12 -5z"/>
<path d="M1878 833 c7 -3 16 -2 19 1 4 3 -2 6 -13 5 -11 0 -14 -3 -6 -6z"/>
<path d="M1651 794 c0 -11 3 -14 6 -6 3 7 2 16 -1 19 -3 4 -6 -2 -5 -13z"/>
<path d="M1753 783 c9 -2 23 -2 30 0 6 3 -1 5 -18 5 -16 0 -22 -2 -12 -5z"/>
<path d="M1946 732 c-2 -4 -1 -14 5 -22 7 -12 9 -10 9 8 0 23 -5 28 -14 14z"/>
<path d="M1971 718 c-1 -21 15 -32 25 -17 4 7 3 9 -4 5 -6 -3 -13 2 -15 11 -4
16 -5 16 -6 1z"/>
<path d="M1675 670 c3 -5 8 -10 11 -10 2 0 4 5 4 10 0 6 -5 10 -11 10 -5 0 -7
-4 -4 -10z"/>
<path d="M2053 600 c0 -30 2 -43 4 -27 2 15 2 39 0 55 -2 15 -4 2 -4 -28z"/>
<path d="M1810 440 c0 -99 4 -180 8 -180 5 0 10 81 11 180 2 122 -1 180 -8
180 -7 0 -11 -59 -11 -180z"/>
<path d="M1974 575 c-4 -9 -4 -19 0 -22 3 -4 6 2 7 13 1 15 3 13 9 -6 7 -23 8
-23 9 -3 1 27 -17 40 -25 18z"/>
<path d="M1939 553 c-13 -16 -12 -17 4 -4 16 13 21 21 13 21 -2 0 -10 -8 -17
-17z"/>
<path d="M1652 520 c0 -14 2 -19 5 -12 2 6 2 18 0 25 -3 6 -5 1 -5 -13z"/>
<path d="M1673 524 c-3 -8 -1 -20 5 -26 8 -8 9 -4 6 13 -5 19 -4 21 5 9 9 -13
11 -13 11 3 0 21 -19 23 -27 1z"/>
<path d="M1898 523 c7 -3 16 -2 19 1 4 3 -2 6 -13 5 -11 0 -14 -3 -6 -6z"/>
<path d="M1868 493 c7 -3 16 -2 19 1 4 3 -2 6 -13 5 -11 0 -14 -3 -6 -6z"/>
<path d="M2054 400 c0 -52 1 -74 3 -47 2 26 2 68 0 95 -2 26 -3 4 -3 -48z"/>
<path d="M1753 463 c9 -2 23 -2 30 0 6 3 -1 5 -18 5 -16 0 -22 -2 -12 -5z"/>
<path d="M1850 439 c0 -5 5 -7 10 -4 6 3 10 8 10 11 0 2 -4 4 -10 4 -5 0 -10
-5 -10 -11z"/>
<path d="M1898 443 c7 -3 16 -2 19 1 4 3 -2 6 -13 5 -11 0 -14 -3 -6 -6z"/>
<path d="M1954 415 c-7 -17 4 -37 17 -30 12 8 12 45 -1 45 -6 0 -13 -7 -16
-15z m13 -17 c-3 -8 -6 -5 -6 6 -1 11 2 17 5 13 3 -3 4 -12 1 -19z"/>
<path d="M1674 386 c-7 -18 3 -36 19 -35 9 0 9 2 0 6 -7 2 -13 12 -13 21 0 15
2 15 10 2 6 -9 10 -10 10 -3 0 19 -20 26 -26 9z"/>
<path d="M1647 373 c-10 -9 -9 -23 1 -23 5 0 9 7 9 15 0 17 -1 18 -10 8z"/>
<path d="M1863 353 c9 -2 23 -2 30 0 6 3 -1 5 -18 5 -16 0 -22 -2 -12 -5z"/>
<path d="M1668 333 c7 -3 16 -2 19 1 4 3 -2 6 -13 5 -11 0 -14 -3 -6 -6z"/>
<path d="M1740 330 c0 -5 5 -10 10 -10 6 0 10 5 10 10 0 6 -4 10 -10 10 -5 0
-10 -4 -10 -10z"/>
<path d="M1850 336 c0 -2 11 -6 25 -8 14 -3 25 -1 25 3 0 5 -11 9 -25 9 -14 0
-25 -2 -25 -4z"/>
<path d="M1863 303 c9 -2 23 -2 30 0 6 3 -1 5 -18 5 -16 0 -22 -2 -12 -5z"/>
<path d="M1748 293 c7 -3 16 -2 19 1 4 3 -2 6 -13 5 -11 0 -14 -3 -6 -6z"/>
<path d="M2053 235 c0 -33 2 -45 4 -27 2 18 2 45 0 60 -2 15 -4 0 -4 -33z"/>
<path d="M1863 273 c9 -2 23 -2 30 0 6 3 -1 5 -18 5 -16 0 -22 -2 -12 -5z"/>
<path d="M1934 269 c-4 -8 -3 -9 4 -5 7 4 12 3 12 -3 0 -5 -4 -13 -10 -16 -14
-9 -12 -25 3 -25 15 0 21 46 8 55 -5 3 -13 0 -17 -6z"/>
<path d="M1974 266 c-4 -9 -2 -27 4 -39 10 -22 10 -21 17 6 9 33 -10 62 -21
33z m13 -28 c-3 -7 -5 -2 -5 12 0 14 2 19 5 13 2 -7 2 -19 0 -25z"/>
<path d="M1730 260 c19 -13 30 -13 30 0 0 6 -10 10 -22 10 -19 0 -20 -2 -8
-10z"/>
<path d="M1646 245 c4 -8 8 -15 10 -15 2 0 4 7 4 15 0 8 -4 15 -10 15 -5 0 -7
-7 -4 -15z"/>
<path d="M1674 245 c-7 -16 2 -35 17 -35 5 0 9 8 9 18 0 15 -2 15 -11 2 -9
-12 -10 -11 -6 8 6 25 -1 30 -9 7z"/>
<path d="M1860 249 c0 -5 10 -9 22 -9 12 0 18 3 14 7 -10 11 -36 12 -36 2z"/>
<path d="M1816 234 c-4 -9 -13 -14 -21 -10 -8 3 -15 1 -15 -3 0 -5 5 -11 11
-13 5 -2 10 -22 11 -46 0 -23 4 -45 9 -48 5 -3 9 15 9 40 0 48 15 65 62 67 18
1 17 3 -8 8 -17 4 -36 11 -41 14 -6 4 -14 0 -17 -9z"/>
<path d="M1870 200 c-24 -8 -24 -8 -2 -9 12 -1 22 -6 22 -12 0 -6 -9 -9 -20
-6 -11 3 -20 1 -20 -4 0 -5 11 -9 25 -9 20 0 25 5 25 25 0 14 -1 25 -2 24 -2
-1 -14 -5 -28 -9z"/>
<path d="M1718 193 c12 -2 32 -2 45 0 12 2 2 4 -23 4 -25 0 -35 -2 -22 -4z"/>
<path d="M1740 159 c0 -5 11 -9 25 -9 33 0 33 15 0 16 -14 1 -25 -2 -25 -7z"/>
<path d="M2051 154 c0 -11 3 -14 6 -6 3 7 2 16 -1 19 -3 4 -6 -2 -5 -13z"/>
<path d="M1851 146 c12 -10 60 -16 54 -6 -3 5 -18 10 -32 10 -15 0 -24 -2 -22
-4z"/>
<path d="M1755 130 c28 -12 37 -12 30 0 -3 6 -16 10 -28 9 -21 0 -21 -1 -2 -9z"/>
<path d="M1848 113 c6 -2 18 -2 25 0 6 3 1 5 -13 5 -14 0 -19 -2 -12 -5z"/>
</g>
</svg>
